<mxfile host="app.diagrams.net" modified="2024-05-26T22:35:16.854Z" agent="Mozilla/5.0 (Windows NT 10.0; Win64; x64; rv:126.0) Gecko/20100101 Firefox/126.0" etag="PSWvSbzrjCkTQNHWm2RK" version="24.4.8" type="device">
  <diagram name="Страница — 1" id="S8JJOAkM9DMdXBuqBMaL">
    <mxGraphModel dx="1434" dy="726" grid="1" gridSize="10" guides="1" tooltips="1" connect="1" arrows="1" fold="1" page="1" pageScale="1" pageWidth="827" pageHeight="1169" math="0" shadow="0">
      <root>
        <mxCell id="0" />
        <mxCell id="1" parent="0" />
        <mxCell id="jzt7o9upjYzdeKledH6V-3" style="edgeStyle=orthogonalEdgeStyle;rounded=0;orthogonalLoop=1;jettySize=auto;html=1;fontSize=15;" parent="1" source="jzt7o9upjYzdeKledH6V-1" target="jzt7o9upjYzdeKledH6V-4" edge="1">
          <mxGeometry relative="1" as="geometry">
            <mxPoint x="570" y="120" as="targetPoint" />
          </mxGeometry>
        </mxCell>
        <mxCell id="jzt7o9upjYzdeKledH6V-1" value="&lt;font style=&quot;font-size: 15px;&quot;&gt;Start&lt;/font&gt;" style="rounded=1;whiteSpace=wrap;html=1;fontSize=15;" parent="1" vertex="1">
          <mxGeometry x="210" y="20" width="120" height="60" as="geometry" />
        </mxCell>
        <mxCell id="jzt7o9upjYzdeKledH6V-6" style="edgeStyle=orthogonalEdgeStyle;rounded=0;orthogonalLoop=1;jettySize=auto;html=1;entryX=0.5;entryY=0;entryDx=0;entryDy=0;fontSize=15;" parent="1" source="jzt7o9upjYzdeKledH6V-4" target="jzt7o9upjYzdeKledH6V-5" edge="1">
          <mxGeometry relative="1" as="geometry" />
        </mxCell>
        <mxCell id="jzt7o9upjYzdeKledH6V-4" value="&lt;div&gt;array (size)&lt;/div&gt;&lt;div&gt;newArray (size)&lt;br&gt;&lt;/div&gt;" style="shape=parallelogram;perimeter=parallelogramPerimeter;whiteSpace=wrap;html=1;fixedSize=1;fontSize=15;size=10;" parent="1" vertex="1">
          <mxGeometry x="200.01" y="120" width="140" height="60" as="geometry" />
        </mxCell>
        <mxCell id="jzt7o9upjYzdeKledH6V-68" style="edgeStyle=orthogonalEdgeStyle;rounded=0;orthogonalLoop=1;jettySize=auto;html=1;entryX=0.5;entryY=0;entryDx=0;entryDy=0;" parent="1" source="jzt7o9upjYzdeKledH6V-5" target="jzt7o9upjYzdeKledH6V-7" edge="1">
          <mxGeometry relative="1" as="geometry" />
        </mxCell>
        <mxCell id="jzt7o9upjYzdeKledH6V-5" value="&lt;div&gt;&lt;font style=&quot;font-size: 14px;&quot;&gt;i = 1&lt;/font&gt;&lt;/div&gt;&lt;div&gt;&lt;font size=&quot;3&quot;&gt;minSymbolQty = 3&lt;br&gt;&lt;/font&gt;&lt;/div&gt;" style="rounded=0;whiteSpace=wrap;html=1;fontSize=15;" parent="1" vertex="1">
          <mxGeometry x="195.63" y="234" width="148.75" height="60" as="geometry" />
        </mxCell>
        <mxCell id="jzt7o9upjYzdeKledH6V-64" style="edgeStyle=orthogonalEdgeStyle;rounded=0;orthogonalLoop=1;jettySize=auto;html=1;entryX=0.5;entryY=0;entryDx=0;entryDy=0;" parent="1" source="jzt7o9upjYzdeKledH6V-7" target="jzt7o9upjYzdeKledH6V-9" edge="1">
          <mxGeometry relative="1" as="geometry" />
        </mxCell>
        <mxCell id="jzt7o9upjYzdeKledH6V-65" value="TRUE" style="edgeLabel;html=1;align=center;verticalAlign=middle;resizable=0;points=[];" parent="jzt7o9upjYzdeKledH6V-64" vertex="1" connectable="0">
          <mxGeometry x="0.0333" y="-4" relative="1" as="geometry">
            <mxPoint as="offset" />
          </mxGeometry>
        </mxCell>
        <mxCell id="jzt7o9upjYzdeKledH6V-67" style="edgeStyle=orthogonalEdgeStyle;rounded=0;orthogonalLoop=1;jettySize=auto;html=1;entryX=0;entryY=0.5;entryDx=0;entryDy=0;" parent="1" source="jzt7o9upjYzdeKledH6V-7" target="jzt7o9upjYzdeKledH6V-66" edge="1">
          <mxGeometry relative="1" as="geometry" />
        </mxCell>
        <mxCell id="jzt7o9upjYzdeKledH6V-80" value="FALSE" style="edgeLabel;html=1;align=center;verticalAlign=middle;resizable=0;points=[];" parent="jzt7o9upjYzdeKledH6V-67" vertex="1" connectable="0">
          <mxGeometry x="-0.1494" y="-2" relative="1" as="geometry">
            <mxPoint y="-2" as="offset" />
          </mxGeometry>
        </mxCell>
        <mxCell id="jzt7o9upjYzdeKledH6V-7" value="i &amp;lt; size" style="rhombus;whiteSpace=wrap;html=1;fontSize=15;" parent="1" vertex="1">
          <mxGeometry x="230" y="354" width="80" height="60" as="geometry" />
        </mxCell>
        <mxCell id="jzt7o9upjYzdeKledH6V-52" style="edgeStyle=orthogonalEdgeStyle;rounded=0;orthogonalLoop=1;jettySize=auto;html=1;" parent="1" source="jzt7o9upjYzdeKledH6V-9" edge="1">
          <mxGeometry relative="1" as="geometry">
            <mxPoint x="270" y="660" as="targetPoint" />
          </mxGeometry>
        </mxCell>
        <mxCell id="jzt7o9upjYzdeKledH6V-53" value="&lt;div&gt;FALSE&lt;/div&gt;" style="edgeLabel;html=1;align=center;verticalAlign=middle;resizable=0;points=[];" parent="jzt7o9upjYzdeKledH6V-52" vertex="1" connectable="0">
          <mxGeometry x="-0.1249" relative="1" as="geometry">
            <mxPoint x="-1" as="offset" />
          </mxGeometry>
        </mxCell>
        <mxCell id="jzt7o9upjYzdeKledH6V-9" value="array(i).Length &amp;lt;=&amp;nbsp;minSymbolQty  " style="rhombus;whiteSpace=wrap;html=1;fontSize=15;" parent="1" vertex="1">
          <mxGeometry x="185" y="470" width="170" height="135.99" as="geometry" />
        </mxCell>
        <mxCell id="jzt7o9upjYzdeKledH6V-74" style="edgeStyle=orthogonalEdgeStyle;rounded=0;orthogonalLoop=1;jettySize=auto;html=1;entryX=0;entryY=0.5;entryDx=0;entryDy=0;" parent="1" source="jzt7o9upjYzdeKledH6V-12" target="jzt7o9upjYzdeKledH6V-7" edge="1">
          <mxGeometry relative="1" as="geometry">
            <Array as="points">
              <mxPoint x="127" y="384" />
            </Array>
          </mxGeometry>
        </mxCell>
        <mxCell id="jzt7o9upjYzdeKledH6V-12" value="i = i + 1" style="rounded=0;whiteSpace=wrap;html=1;" parent="1" vertex="1">
          <mxGeometry x="82" y="433" width="90" height="30" as="geometry" />
        </mxCell>
        <mxCell id="jzt7o9upjYzdeKledH6V-75" style="edgeStyle=orthogonalEdgeStyle;rounded=0;orthogonalLoop=1;jettySize=auto;html=1;entryX=0.5;entryY=1;entryDx=0;entryDy=0;" parent="1" source="jzt7o9upjYzdeKledH6V-16" target="jzt7o9upjYzdeKledH6V-12" edge="1">
          <mxGeometry relative="1" as="geometry">
            <Array as="points">
              <mxPoint x="690" y="540" />
              <mxPoint x="690" y="660" />
              <mxPoint x="127" y="660" />
            </Array>
          </mxGeometry>
        </mxCell>
        <mxCell id="jzt7o9upjYzdeKledH6V-16" value="Добавляем array(i) в новый массив newArray" style="rounded=0;whiteSpace=wrap;html=1;fontSize=15;" parent="1" vertex="1">
          <mxGeometry x="440" y="510.93" width="217" height="54.12" as="geometry" />
        </mxCell>
        <mxCell id="jzt7o9upjYzdeKledH6V-18" style="edgeStyle=orthogonalEdgeStyle;rounded=0;orthogonalLoop=1;jettySize=auto;html=1;entryX=0;entryY=0.5;entryDx=0;entryDy=0;" parent="1" source="jzt7o9upjYzdeKledH6V-9" target="jzt7o9upjYzdeKledH6V-16" edge="1">
          <mxGeometry relative="1" as="geometry" />
        </mxCell>
        <mxCell id="jzt7o9upjYzdeKledH6V-19" value="TRUE" style="edgeLabel;html=1;align=center;verticalAlign=middle;resizable=0;points=[];" parent="jzt7o9upjYzdeKledH6V-18" vertex="1" connectable="0">
          <mxGeometry x="-0.1008" y="2" relative="1" as="geometry">
            <mxPoint y="1" as="offset" />
          </mxGeometry>
        </mxCell>
        <mxCell id="jzt7o9upjYzdeKledH6V-22" value="array = [“1234”, “1567”, “-2”, “computer”]" style="rounded=0;whiteSpace=wrap;html=1;" parent="1" vertex="1">
          <mxGeometry x="362" y="120" width="236" height="60" as="geometry" />
        </mxCell>
        <mxCell id="jzt7o9upjYzdeKledH6V-77" style="edgeStyle=orthogonalEdgeStyle;rounded=0;orthogonalLoop=1;jettySize=auto;html=1;entryX=0;entryY=0.5;entryDx=0;entryDy=0;" parent="1" source="jzt7o9upjYzdeKledH6V-66" target="jzt7o9upjYzdeKledH6V-76" edge="1">
          <mxGeometry relative="1" as="geometry" />
        </mxCell>
        <mxCell id="jzt7o9upjYzdeKledH6V-66" value="&lt;font style=&quot;font-size: 14px;&quot;&gt;print newArray&lt;/font&gt;" style="shape=document;whiteSpace=wrap;html=1;boundedLbl=1;" parent="1" vertex="1">
          <mxGeometry x="400" y="344" width="161" height="80" as="geometry" />
        </mxCell>
        <mxCell id="jzt7o9upjYzdeKledH6V-76" value="Finish" style="rounded=1;whiteSpace=wrap;html=1;fontSize=15;" parent="1" vertex="1">
          <mxGeometry x="630" y="354" width="120" height="60" as="geometry" />
        </mxCell>
      </root>
    </mxGraphModel>
  </diagram>
</mxfile>
